<svg width="30" height="30" viewBox="0 0 30 30" fill="none" xmlns="http://www.w3.org/2000/svg">
<path d="M26.403 22.129C27.576 20.093 28.1744 17.7662 28.1744 15.197C28.1744 12.5066 27.5281 10.1071 26.2355 7.99838L28.6532 5.55038C29.8979 4.29002 29.8979 2.20558 28.6532 0.920978C27.4084 -0.339382 25.3498 -0.339382 24.0811 0.920978L21.6634 3.36898C19.6048 2.06015 17.1871 1.40573 14.53 1.40573C12.0405 1.40573 9.76649 2.01167 7.7318 3.19932L5.50562 0.945215C4.23693 -0.315144 2.22618 -0.315144 0.933561 0.945215C-0.311187 2.20558 -0.311187 4.29002 0.933561 5.57461L2.99218 7.65906C1.60381 9.84045 0.885686 12.3612 0.885686 15.197C0.885686 18.0328 1.532 20.2869 2.8725 22.4198L0.933561 24.3831C-0.311187 25.6434 -0.311187 27.7036 0.933561 29.0125C1.57987 29.6184 2.39375 29.982 3.20762 29.982C4.06937 29.982 4.88324 29.6426 5.48168 29.0125L7.46849 27.0007C9.52711 28.3096 11.8969 28.9155 14.53 28.9155C17.3307 28.9155 19.7724 28.2126 21.9267 26.8311L24.0811 29.0125C24.7274 29.6184 25.5413 29.982 26.3552 29.982C27.169 29.982 27.9829 29.6426 28.6292 29.0125C29.874 27.7036 29.874 25.6677 28.6292 24.3831L26.403 22.129ZM20.2511 21.0625C19.509 21.8139 18.743 22.3229 17.8813 22.7107C16.8999 23.1954 15.7748 23.4136 14.53 23.4136C13.4529 23.4136 12.4235 23.2439 11.5139 22.8803C10.5325 22.4925 9.62286 21.8866 8.80899 21.0625C7.99512 20.2384 7.39668 19.2689 7.01368 18.2267C6.67855 17.3057 6.48705 16.2634 6.48705 15.1727C6.48705 13.9124 6.70249 12.7732 7.08549 11.7795C7.51637 10.81 8.06693 9.98587 8.80899 9.25874C9.71861 8.33771 10.7 7.68329 11.873 7.39244C12.6869 7.05311 13.5965 6.90769 14.53 6.90769C15.6551 6.90769 16.6365 7.07735 17.594 7.51363C18.5755 7.85296 19.4372 8.43466 20.2511 9.25874C21.065 10.1313 21.7113 11.0766 22.0943 12.1673C22.4055 13.0883 22.573 14.082 22.573 15.1727C22.573 16.1422 22.4533 17.0148 22.19 17.8389C21.807 19.0508 21.1607 20.1415 20.2511 21.0625Z" fill="#5295CF"/>
</svg>
