<svg width="20" height="18" viewBox="0 0 20 18" fill="none" xmlns="http://www.w3.org/2000/svg">
<path d="M17.0703 9.47469H15.1126C14.8461 9.47469 14.5882 9.5111 14.3427 9.57805C13.8584 8.62602 12.8696 7.97188 11.7303 7.97188H8.26973C7.13039 7.97188 6.14164 8.62602 5.65734 9.57805C5.40645 9.50948 5.14752 9.47472 4.88742 9.47469H2.92969C1.31426 9.47469 0 10.7889 0 12.4044V15.534C0 16.5032 0.788555 17.2918 1.75781 17.2918H18.2422C19.2114 17.2918 20 16.5032 20 15.534V12.4044C20 10.7889 18.6857 9.47469 17.0703 9.47469ZM5.34004 10.9016V16.12H1.75781C1.43473 16.12 1.17188 15.8571 1.17188 15.534V12.4044C1.17188 11.4352 1.96043 10.6466 2.92969 10.6466H4.88742C5.04648 10.6466 5.20051 10.6682 5.34715 10.708C5.34265 10.7725 5.34028 10.837 5.34004 10.9016ZM13.4881 16.12H6.51191V10.9016C6.51191 9.93235 7.30047 9.14379 8.26973 9.14379H11.7303C12.6995 9.14379 13.4881 9.93235 13.4881 10.9016V16.12ZM18.8281 15.534C18.8281 15.8571 18.5653 16.12 18.2422 16.12H14.66V10.9016C14.6597 10.837 14.6573 10.7724 14.6529 10.708C14.8027 10.6672 14.9573 10.6466 15.1126 10.6466H17.0703C18.0396 10.6466 18.8281 11.4351 18.8281 12.4044V15.534Z" fill="#96A0B5"/>
<path d="M3.90859 3.94156C2.47309 3.94156 1.30523 5.10941 1.30523 6.54492C1.3052 7.98043 2.47309 9.14828 3.90859 9.14828C5.34406 9.14828 6.51195 7.98043 6.51195 6.54492C6.51195 5.10941 5.3441 3.94156 3.90859 3.94156ZM3.90855 7.9764C3.11922 7.9764 2.47707 7.33425 2.47707 6.54492C2.47707 5.75558 3.11922 5.11343 3.90855 5.11343C4.69789 5.11343 5.34004 5.75558 5.34004 6.54492C5.34004 7.33425 4.69789 7.9764 3.90855 7.9764ZM10 0.70816C8.08219 0.70816 6.52195 2.26839 6.52195 4.18621C6.52195 6.10402 8.08219 7.66425 10 7.66425C11.9178 7.66425 13.478 6.10402 13.478 4.18621C13.478 2.26843 11.9178 0.70816 10 0.70816ZM10 6.49238C8.72836 6.49238 7.69383 5.45785 7.69383 4.18621C7.69383 2.91461 8.72836 1.88004 10 1.88004C11.2716 1.88004 12.3062 2.91457 12.3062 4.18621C12.3062 5.45785 11.2716 6.49238 10 6.49238ZM16.0914 3.94156C14.6559 3.94156 13.488 5.10941 13.488 6.54492C13.4881 7.98043 14.6559 9.14828 16.0914 9.14828C17.5269 9.14828 18.6948 7.98043 18.6948 6.54492C18.6948 5.10941 17.5269 3.94156 16.0914 3.94156ZM16.0914 7.9764C15.3021 7.9764 14.6599 7.33425 14.6599 6.54492C14.66 5.75558 15.3021 5.11343 16.0914 5.11343C16.8807 5.11343 17.5229 5.75558 17.5229 6.54492C17.5229 7.33425 16.8807 7.9764 16.0914 7.9764Z" fill="#96A0B5"/>
</svg>
