<svg width="20" height="18" viewBox="0 0 20 18" fill="none" xmlns="http://www.w3.org/2000/svg">
<path d="M14.5513 3.9134V2.22314C14.5513 1.55042 14.0009 1 13.3282 1H6.96784C6.29508 1 5.7447 1.55042 5.7447 2.22314V3.9134M1.75893 9.3796V15.8612C1.75893 16.4874 2.2715 17 2.89772 17H17.3983C18.0245 17 18.5371 16.4875 18.5371 15.8612V9.41756" stroke="#6A7287" stroke-width="0.8" stroke-miterlimit="22.9256" stroke-linecap="round" stroke-linejoin="round"/>
<path d="M11.667 11.2967C15.6827 11.0671 19.2969 9.91877 19.2969 7.85176V5.15673C19.2969 4.52953 18.7853 4.01794 18.1581 4.01794H2.1391C1.5119 4.01794 1.00031 4.52956 1.00031 5.15673V7.85176C1.00031 9.93172 4.66016 11.0814 8.70613 11.3009" stroke="#6A7287" stroke-width="0.8" stroke-miterlimit="22.9256" stroke-linecap="round" stroke-linejoin="round"/>
<path fill-rule="evenodd" clip-rule="evenodd" d="M11.5527 10.167H8.74372V11.4766C8.74372 12.1969 9.33304 12.7862 10.0533 12.7862H10.2431C10.9634 12.7862 11.5527 12.1969 11.5527 11.4766V10.167Z" stroke="#6A7287" stroke-width="0.8" stroke-miterlimit="22.9256" stroke-linecap="round" stroke-linejoin="round"/>
</svg>
