<svg width="19" height="18" viewBox="0 0 19 18" fill="none" xmlns="http://www.w3.org/2000/svg">
<path d="M10.6996 17H3.0614M10.6996 17V1.32201M10.6996 17H14.9985V15.425M10.6996 17L10.6996 8.49369H15.4428C15.7572 8.49369 16.0116 8.74482 16.0116 9.05502V13.5578M10.6996 17H17.6143C17.8273 17 18 16.8296 18 16.6194V15.4251M10.6996 17L10.6996 15.4251H18M3.0614 17V4.44465C3.06141 4.27301 3.11602 4.1057 3.21755 3.96634C3.31908 3.82697 3.46239 3.72259 3.62726 3.66791L10.6996 1.32201M3.0614 17H1.3857C1.17267 17 1 16.8296 1 16.6194V15.4251M3.0614 17L3.06141 15.4251H1M10.6996 1.32201L10.6996 8.49353H13.3557M10.6996 1.32201L13.1025 3.61397C13.1826 3.69039 13.2463 3.78194 13.2898 3.88317C13.3333 3.98439 13.3557 4.09322 13.3557 4.20318V7.30019M18 15.4251L18 14.9064C18 14.128 17.3605 13.4969 16.5717 13.4969H16.4268C15.638 13.4969 14.9985 14.128 14.9985 14.9064V15.4251L18 15.4251ZM1 15.4251L3.06145 15.4251V13.4969H2.85974C1.83266 13.4969 1 14.3185 1 15.3321V15.4251ZM4.92984 3.23585V1.52622C4.92984 1.2356 5.16859 1 5.46344 1H5.51748C5.81199 1 6.05074 1.2356 6.05074 1.52622V2.86389M10.6996 3.23552L4.92984 5.14936M10.6996 5.05756L4.92984 6.9714M10.6996 6.87958L4.92984 8.79342M10.6996 8.70162L4.92984 10.6155M5.88232 12.1216L4.92984 12.4375M10.6996 10.5237L7.03116 11.7405M6.45007 14.1485V17M7.97024 17H4.92987V14.8494C4.92987 14.6826 5.04241 14.5363 5.20515 14.4915L7.59292 13.8337C7.78248 13.7814 7.97024 13.9221 7.97024 14.1163V17ZM14.5955 10.5817H12.0796C12.0329 10.5817 11.9881 10.5634 11.9551 10.5308C11.9221 10.4982 11.9035 10.454 11.9035 10.4079V9.79858C11.9035 9.77576 11.9081 9.75316 11.9169 9.73208C11.9258 9.71099 11.9388 9.69183 11.9551 9.67569C11.9715 9.65955 11.9909 9.64675 12.0122 9.63802C12.0336 9.62928 12.0565 9.62478 12.0796 9.62478H14.5955C14.6422 9.62478 14.687 9.6431 14.72 9.67569C14.753 9.70828 14.7716 9.75249 14.7716 9.79858V10.4079C14.7716 10.4308 14.767 10.4534 14.7582 10.4744C14.7493 10.4955 14.7364 10.5147 14.72 10.5308C14.7036 10.547 14.6842 10.5598 14.6629 10.5685C14.6415 10.5772 14.6186 10.5817 14.5955 10.5817ZM14.5955 12.5067H12.0796C12.0565 12.5067 12.0336 12.5022 12.0122 12.4935C11.9909 12.4847 11.9715 12.4719 11.9551 12.4558C11.9388 12.4396 11.9258 12.4205 11.9169 12.3994C11.9081 12.3783 11.9035 12.3557 11.9035 12.3329V11.7235C11.9035 11.6774 11.9221 11.6332 11.9551 11.6007C11.9881 11.5681 12.0329 11.5498 12.0796 11.5498H14.5955C14.6186 11.5498 14.6415 11.5543 14.6629 11.563C14.6842 11.5717 14.7036 11.5845 14.72 11.6006C14.7364 11.6168 14.7493 11.6359 14.7582 11.657C14.767 11.6781 14.7716 11.7007 14.7716 11.7235V12.3329C14.7716 12.379 14.753 12.4232 14.72 12.4558C14.687 12.4884 14.6422 12.5067 14.5955 12.5067ZM12.9118 14.4513H12.0796C12.0565 14.4513 12.0336 14.4469 12.0122 14.4381C11.9909 14.4294 11.9715 14.4166 11.9551 14.4005C11.9388 14.3843 11.9258 14.3652 11.917 14.3441C11.9081 14.323 11.9035 14.3004 11.9035 14.2776V13.6682C11.9035 13.6454 11.9081 13.6228 11.9169 13.6017C11.9258 13.5806 11.9388 13.5615 11.9551 13.5453C11.9715 13.5292 11.9909 13.5164 12.0122 13.5077C12.0336 13.4989 12.0565 13.4944 12.0796 13.4944H12.9118C12.9585 13.4944 13.0033 13.5127 13.0363 13.5453C13.0693 13.5779 13.0879 13.6221 13.0879 13.6682V14.2776C13.0879 14.3004 13.0833 14.323 13.0745 14.3441C13.0656 14.3652 13.0527 14.3843 13.0363 14.4005C13.02 14.4166 13.0005 14.4294 12.9792 14.4381C12.9578 14.4469 12.9349 14.4514 12.9118 14.4513Z" stroke="#6A7287" stroke-width="0.5" stroke-miterlimit="10" stroke-linecap="round" stroke-linejoin="round"/>
</svg>
