<svg width="20" height="20" viewBox="0 0 20 20" fill="none" xmlns="http://www.w3.org/2000/svg">
<path d="M15 9.6875V3.4375H8.75V9.6875H15ZM11.875 6.5625C11.5303 6.5625 11.25 6.28219 11.25 5.9375C11.25 5.59281 11.5303 5.3125 11.875 5.3125C12.2197 5.3125 12.5 5.59281 12.5 5.9375C12.5 6.28219 12.2197 6.5625 11.875 6.5625ZM11.0375 7.39219C11.2376 7.2586 11.4728 7.18737 11.7134 7.1875H12.0362C12.2769 7.18733 12.5121 7.25857 12.7122 7.39219C12.8506 7.48482 12.9687 7.60475 13.0591 7.74462C13.1496 7.8845 13.2105 8.04137 13.2381 8.20562L13.3813 9.0625H10.3688L10.5116 8.20562C10.5393 8.04139 10.6002 7.88454 10.6906 7.74467C10.7811 7.6048 10.8991 7.48486 11.0375 7.39219ZM9.375 4.0625H14.375V9.0625H14.0147L13.8547 8.10281C13.8052 7.80966 13.6859 7.53274 13.5067 7.29551C13.3275 7.05828 13.0938 6.86773 12.8253 6.74C13.0176 6.51671 13.1238 6.23215 13.125 5.9375C13.125 5.24812 12.5644 4.6875 11.875 4.6875C11.1856 4.6875 10.625 5.24812 10.625 5.9375C10.625 6.24437 10.7403 6.52219 10.9247 6.74C10.6562 6.86773 10.4225 7.05828 10.2433 7.29551C10.0641 7.53274 9.94477 7.80966 9.89531 8.10281L9.73531 9.0625H9.375V4.0625ZM4.375 5.3125H8.125V5.9375H4.375V5.3125ZM4.375 6.5625H8.125V7.1875H4.375V6.5625ZM4.375 7.8125H8.125V8.4375H4.375V7.8125ZM4.375 9.0625H8.125V9.6875H4.375V9.0625ZM4.375 10.3125H15V10.9375H4.375V10.3125ZM10.625 18.4375H15V15.9375H10.625V18.4375ZM11.25 16.5625H14.375V17.8125H11.25V16.5625ZM7.5 17.8125H10V18.4375H7.5V17.8125ZM7.5 16.5625H10V17.1875H7.5V16.5625Z" fill="#96A0B5"/>
<path d="M19.6806 16.485L17.8759 1.16624C17.8162 0.635619 17.3181 0.246244 16.7884 0.321244L8.12031 1.51687C8.09594 0.849369 7.54875 0.312494 6.875 0.312494H6.25C5.56063 0.312494 5 0.873119 5 1.56249V2.18749H3.75C3.40531 2.18749 3.125 2.46781 3.125 2.81249V14.5581L0.791875 16.8909C0.639459 17.0428 0.518624 17.2233 0.436346 17.422C0.354068 17.6208 0.311976 17.8339 0.3125 18.0491C0.312996 18.4834 0.485733 18.8998 0.792825 19.2069C1.09992 19.5141 1.51629 19.6869 1.95063 19.6875C2.16588 19.6882 2.37913 19.6461 2.57799 19.5637C2.77685 19.4813 2.95737 19.3602 3.10906 19.2075L3.13688 19.1797C3.16423 19.3223 3.24037 19.451 3.35224 19.5437C3.46411 19.6364 3.60474 19.6872 3.75 19.6875H15.625C15.9697 19.6875 16.25 19.4072 16.25 19.0625V18.0734L18.8562 17.5997C19.1098 17.5538 19.3362 17.4129 19.4894 17.2058C19.6426 16.9986 19.711 16.7408 19.6806 16.485ZM5.625 1.56249C5.625 1.21781 5.90531 0.937494 6.25 0.937494H6.875C7.21969 0.937494 7.5 1.21781 7.5 1.56249V2.18749H6.875V1.56249H6.25V2.18749H5.625V1.56249ZM5.625 2.81249H6.25V3.74999C6.2464 3.83046 6.2119 3.90643 6.15369 3.9621C6.09548 4.01776 6.01804 4.04883 5.9375 4.04883C5.85696 4.04883 5.77952 4.01776 5.72131 3.9621C5.6631 3.90643 5.6286 3.83046 5.625 3.74999V2.81249ZM7.44156 12.9372L7.06281 12.5584L7.63094 12.3691L7.44156 12.9372ZM6.4 12.7794L7.22063 13.6L7.05094 14.1091L5.89094 12.9491L6.4 12.7794ZM5.3125 13.2544L6.74562 14.6875L3.4375 17.9956L2.00437 16.5625L5.3125 13.2544ZM1.95063 19.0625C1.68197 19.0622 1.42443 18.9553 1.23449 18.7653C1.04456 18.5753 0.937748 18.3177 0.9375 18.0491C0.9375 17.7784 1.04281 17.5241 1.23406 17.3325L1.5625 17.0044L2.99562 18.4375L2.66719 18.7659C2.5733 18.8603 2.46162 18.9351 2.33862 18.986C2.21562 19.0369 2.08374 19.0629 1.95063 19.0625ZM15.625 19.0625H3.75V18.5669L7.46063 14.8562L8.35031 12.1875H15V11.5625H8.07437L5.14375 12.5394L3.75 13.9331V2.81249H5V3.74999C5 4.26687 5.42063 4.68749 5.9375 4.68749C6.45437 4.68749 6.875 4.26687 6.875 3.74999V2.81249H7.5V4.06249H8.125V2.81249H15.625V19.0625ZM18.7444 16.9847L16.25 17.4381V2.81249C16.25 2.46781 15.9697 2.18749 15.625 2.18749H8.125V2.14749L16.8737 0.940619C16.9184 0.934856 16.9637 0.938011 17.0071 0.9499C17.0505 0.961788 17.0911 0.982175 17.1266 1.00988C17.1621 1.03758 17.1917 1.07205 17.2137 1.11128C17.2358 1.15051 17.2498 1.19373 17.255 1.23843L19.06 16.56C19.071 16.6576 19.0446 16.7558 18.986 16.8346C18.9274 16.9134 18.841 16.9671 18.7444 16.9847Z" fill="#96A0B5"/>
</svg>
