<svg width="20" height="18" viewBox="0 0 20 18" fill="none" xmlns="http://www.w3.org/2000/svg">
<path d="M19 3H14.6667V1.66667C14.6655 0.746583 13.9201 0.001125 13 0H7C6.07992 0.001125 5.33446 0.746583 5.33333 1.66667V3H1C0.44775 3 0 3.44775 0 4V11.4199C0.000989943 11.6263 0.0655137 11.8273 0.184796 11.9957C0.304078 12.1641 0.472329 12.2916 0.666667 12.361V17C0.666667 17.5522 1.11442 18 1.66667 18H18.3333C18.8856 18 19.3333 17.5522 19.3333 17V12.3613C19.5277 12.2919 19.696 12.1643 19.8152 11.9958C19.9345 11.8274 19.999 11.6263 20 11.4199V4C20 3.44775 19.5522 3 19 3ZM6 1.66667C6 1.11442 6.44775 0.666667 7 0.666667H13C13.5523 0.666667 14 1.11442 14 1.66667V3H13.3333V1.66667C13.3333 1.57826 13.2982 1.49348 13.2357 1.43096C13.1732 1.36845 13.0884 1.33333 13 1.33333H7C6.91159 1.33333 6.82681 1.36845 6.7643 1.43096C6.70179 1.49348 6.66667 1.57826 6.66667 1.66667V3H6V1.66667ZM12.6667 3H7.33333V2H12.6667V3ZM18.6667 17C18.6667 17.0884 18.6315 17.1732 18.569 17.2357C18.5065 17.2982 18.4217 17.3333 18.3333 17.3333H1.66667C1.57826 17.3333 1.49348 17.2982 1.43096 17.2357C1.36845 17.1732 1.33333 17.0884 1.33333 17V12.4756L8.66667 13.487V14.3333C8.66667 14.8856 9.11442 15.3333 9.66667 15.3333H10.3333C10.8856 15.3333 11.3333 14.8856 11.3333 14.3333V13.487L18.6667 12.4756V17ZM10.6667 14.3333C10.6667 14.4217 10.6315 14.5065 10.569 14.569C10.5065 14.6315 10.4217 14.6667 10.3333 14.6667H9.66667C9.57826 14.6667 9.49348 14.6315 9.43096 14.569C9.36845 14.5065 9.33333 14.4217 9.33333 14.3333V12.3333C9.33333 12.2449 9.36845 12.1601 9.43096 12.0976C9.49348 12.0351 9.57826 12 9.66667 12H10.3333C10.4217 12 10.5065 12.0351 10.569 12.0976C10.6315 12.1601 10.6667 12.2449 10.6667 12.3333V14.3333ZM19.3333 11.4199C19.3334 11.5003 19.3045 11.578 19.2518 11.6387C19.1991 11.6994 19.1263 11.7391 19.0467 11.7503L18.9543 11.763L11.3333 12.8139V12.3333C11.3333 11.7811 10.8856 11.3333 10.3333 11.3333H9.66667C9.11442 11.3333 8.66667 11.7811 8.66667 12.3333V12.814L0.953625 11.7503C0.873983 11.7391 0.801074 11.6995 0.748339 11.6388C0.695604 11.5781 0.666597 11.5003 0.666667 11.4199V4C0.666667 3.91159 0.701786 3.82681 0.764298 3.7643C0.82681 3.70179 0.911595 3.66667 1 3.66667H19C19.0884 3.66667 19.1732 3.70179 19.2357 3.7643C19.2982 3.82681 19.3333 3.91159 19.3333 4V11.4199Z" fill="#96A0B5"/>
</svg>
