<svg width="20" height="20" viewBox="0 0 20 20" fill="none" xmlns="http://www.w3.org/2000/svg">
<path d="M15.5339 19.3359H1.36324C0.772148 19.3359 0.292969 18.8568 0.292969 18.2657V17.3C0.292969 17.2183 0.325395 17.1401 0.383114 17.0823C0.440832 17.0246 0.519116 16.9922 0.600742 16.9922H19.3993C19.4809 16.9922 19.5592 17.0246 19.6169 17.0823C19.6746 17.1401 19.707 17.2183 19.707 17.3V18.2657C19.707 18.8568 19.2279 19.3359 18.6368 19.3359H16.9141" stroke="white" stroke-width="0.5" stroke-miterlimit="10" stroke-linecap="round" stroke-linejoin="round"/>
<path d="M1.40625 7.46094V6.21094C1.40625 5.69316 1.82598 5.27344 2.34375 5.27344H12.5781M15.6511 5.27344H17.6562C18.174 5.27344 18.5938 5.69316 18.5938 6.21094V16.0547C18.5938 16.5725 18.174 16.9922 17.6562 16.9922H2.34375C1.82598 16.9922 1.40625 16.5725 1.40625 16.0547V8.88789M11.5323 18.1641H8.46777C8.36172 18.1641 8.25731 18.1379 8.16383 18.0878C8.07035 18.0377 7.99071 17.9652 7.93199 17.8769L7.34375 16.9922H12.6562L12.068 17.8769C12.0093 17.9652 11.9297 18.0377 11.8362 18.0877C11.7427 18.1378 11.6383 18.1641 11.5323 18.1641Z" stroke="white" stroke-width="0.5" stroke-miterlimit="10" stroke-linecap="round" stroke-linejoin="round"/>
<path d="M13.6111 6.44531H17.2526C17.2975 6.44531 17.3405 6.46314 17.3723 6.49489C17.404 6.52663 17.4218 6.56968 17.4218 6.61457V15.651C17.4218 15.6959 17.404 15.739 17.3723 15.7707C17.3405 15.8024 17.2975 15.8203 17.2526 15.8203H2.74738C2.72516 15.8203 2.70315 15.8159 2.68261 15.8074C2.66208 15.7989 2.64342 15.7864 2.6277 15.7707C2.61198 15.755 2.59952 15.7364 2.59101 15.7158C2.5825 15.6953 2.57812 15.6733 2.57813 15.6511V6.61457C2.57813 6.56968 2.59596 6.52663 2.6277 6.49489C2.65944 6.46314 2.70249 6.44531 2.74738 6.44531H12.1267" stroke="white" stroke-width="0.5" stroke-miterlimit="10" stroke-linecap="round" stroke-linejoin="round"/>
<path d="M6.6827 13.966C8.08498 13.966 9.22176 12.8292 9.22176 11.4269C9.22176 10.0247 8.08498 8.88789 6.6827 8.88789C5.28041 8.88789 4.14363 10.0247 4.14363 11.4269C4.14363 12.8292 5.28041 13.966 6.6827 13.966Z" stroke="white" stroke-width="0.5" stroke-miterlimit="10" stroke-linecap="round" stroke-linejoin="round"/>
<path d="M6.68269 12.035C7.20046 12.035 7.62019 11.6153 7.62019 11.0975C7.62019 10.5797 7.20046 10.16 6.68269 10.16C6.16493 10.16 5.74519 10.5797 5.74519 11.0975C5.74519 11.6153 6.16493 12.035 6.68269 12.035Z" stroke="white" stroke-width="0.5" stroke-miterlimit="10" stroke-linecap="round" stroke-linejoin="round"/>
<path d="M5.01863 13.2813C5.22914 12.5613 5.89457 12.0352 6.68266 12.0352C7.46156 12.0352 8.12066 12.5491 8.33914 13.2562M11.6493 3.71992C11.345 3.67836 9.48055 3.39945 9.17625 3.35789C8.43875 3.25711 7.68332 3.1573 6.96008 3.35117C6.23684 3.545 5.53996 4.09476 5.32215 4.90968C5.19055 5.40211 5.24562 5.94047 5.39355 6.42672C5.54148 6.91297 5.77746 7.35664 6.01375 7.79449M13.3388 3.88672H17.6888M11.1032 11.4636H13.4776M11.1032 12.5759H14.9218M11.1032 13.6882H14.9218M17.7091 3.67797C17.8729 3.76906 17.8729 4.00441 17.7091 4.0955L12.3433 7.08035C12.158 7.18347 11.9473 6.99363 12.0302 6.79871L13.196 4.06148C13.2196 4.00622 13.2317 3.94678 13.2317 3.88672C13.2317 3.82665 13.2196 3.76721 13.196 3.71195L12.0302 0.974723C11.9473 0.779801 12.158 0.589997 12.3433 0.693083L17.7091 3.67797ZM14.8487 10.0598H11.2641C11.2214 10.0598 11.1805 10.0428 11.1504 10.0127C11.1202 9.9825 11.1033 9.94159 11.1033 9.89894V9.04875C11.1033 9.00609 11.1202 8.96519 11.1504 8.93503C11.1805 8.90487 11.2214 8.88793 11.2641 8.88793H14.8487C14.8913 8.88793 14.9322 8.90487 14.9624 8.93503C14.9925 8.96519 15.0095 9.00609 15.0095 9.04875V9.89894C15.0095 9.94159 14.9925 9.9825 14.9624 10.0127C14.9322 10.0428 14.8913 10.0598 14.8487 10.0598Z" stroke="white" stroke-width="0.5" stroke-miterlimit="10" stroke-linecap="round" stroke-linejoin="round"/>
</svg>
