<svg width="20" height="20" viewBox="0 0 20 20" fill="none" xmlns="http://www.w3.org/2000/svg">
<path d="M19.8892 15.8313L19.1403 15.0572L19.2911 13.9906C19.3053 13.8903 19.28 13.7883 19.2204 13.7063C19.1608 13.6243 19.0717 13.5687 18.9719 13.5512L17.9109 13.365L17.8915 13.3285V4.98092C17.8915 4.30533 17.3419 3.75569 16.6663 3.75569H13.6142V1.78163C13.6142 0.799255 12.815 0 11.8326 0H6.05986C5.07748 0 4.27823 0.799216 4.27823 1.78163V3.75573H1.22617C0.550584 3.75573 0.0009375 4.30537 0.0009375 4.98096V16.6654C0.000898438 17.3409 0.550545 17.8906 1.22617 17.8906H7.18837C7.40411 17.8906 7.57899 17.7157 7.57899 17.4999C7.57899 17.2842 7.40411 17.1093 7.18837 17.1093H1.22617C0.981324 17.1093 0.782184 16.9101 0.782184 16.6653V8.54348C1.59382 9.73297 2.95987 10.5155 4.50537 10.5155H6.74728V12.2987C6.74728 12.5144 6.92216 12.6893 7.1379 12.6893H10.7545C10.9702 12.6893 11.1451 12.5144 11.1451 12.2987V10.5155H13.387C14.9325 10.5155 16.2986 9.73297 17.1102 8.54348V12.209C17.0346 12.1993 16.9578 12.212 16.8894 12.2457L15.9217 12.7187L14.9539 12.2457C14.8629 12.2011 14.7581 12.1937 14.6617 12.2251C14.5653 12.2564 14.4848 12.324 14.4373 12.4135L13.9325 13.365L12.8715 13.5512C12.7717 13.5687 12.6826 13.6243 12.623 13.7063C12.5634 13.7883 12.5381 13.8903 12.5523 13.9906L12.7031 15.0572L11.9542 15.8313C11.8837 15.9042 11.8443 16.0016 11.8443 16.1029C11.8443 16.2043 11.8837 16.3017 11.9542 16.3745L12.6649 17.1093H10.704C10.4882 17.1093 10.3134 17.2842 10.3134 17.4999C10.3134 17.7157 10.4882 17.8906 10.704 17.8906H12.5982L12.5522 18.2153C12.538 18.3156 12.5634 18.4176 12.623 18.4996C12.6826 18.5816 12.7717 18.6372 12.8715 18.6547L13.9325 18.8408L14.4373 19.7924C14.536 19.9785 14.7647 20.0527 14.9539 19.9602L15.9217 19.4872L16.8894 19.9602C16.9804 20.0048 17.0852 20.0121 17.1816 19.9808C17.278 19.9495 17.3585 19.8819 17.406 19.7924L17.9108 18.8408L18.9718 18.6547C19.0716 18.6372 19.1608 18.5816 19.2203 18.4996C19.2799 18.4176 19.3053 18.3156 19.2911 18.2153L19.1402 17.1487L19.8892 16.3745C19.9597 16.3017 19.9991 16.2043 19.9991 16.103C19.9991 16.0016 19.9597 15.9042 19.8892 15.8313ZM5.05947 1.78163C5.05947 1.23003 5.50826 0.781247 6.05986 0.781247H11.8325C12.3841 0.781247 12.8329 1.23003 12.8329 1.78163V3.75573H12.0516V1.95312C12.0516 1.73738 11.8768 1.56249 11.661 1.56249H6.23134C6.0156 1.56249 5.84072 1.73738 5.84072 1.95312V3.75569H5.05947V1.78163ZM11.2704 3.75569H6.62197V2.34374H11.2704V3.75569ZM10.3639 11.908H7.52853V10.5155H10.3639V11.908ZM13.3871 9.73422H4.50537C2.45237 9.73422 0.782184 8.06399 0.782184 6.01103V4.98092C0.782184 4.73611 0.981363 4.53694 1.22617 4.53694H16.6663C16.9111 4.53694 17.1102 4.73611 17.1102 4.98092V6.01103C17.1102 8.06399 15.44 9.73422 13.3871 9.73422ZM18.446 16.7427C18.4046 16.7855 18.3736 16.8371 18.3552 16.8936C18.3369 16.9502 18.3316 17.0102 18.34 17.0691L18.4646 17.9505L17.5878 18.1043C17.5292 18.1146 17.4738 18.1381 17.4257 18.1731C17.3776 18.208 17.3381 18.2535 17.3102 18.306L16.8929 19.0924L16.0931 18.7014C16.0397 18.6753 15.981 18.6618 15.9216 18.6618C15.8621 18.6618 15.8034 18.6753 15.75 18.7014L14.9502 19.0924L14.533 18.306C14.5051 18.2535 14.4656 18.208 14.4175 18.1731C14.3694 18.1381 14.3139 18.1146 14.2554 18.1043L13.3785 17.9505L13.5032 17.0691C13.5115 17.0102 13.5063 16.9502 13.4879 16.8936C13.4696 16.8371 13.4385 16.7855 13.3972 16.7427L12.7782 16.1029L13.3972 15.4631C13.4385 15.4204 13.4696 15.3688 13.4879 15.3122C13.5063 15.2557 13.5115 15.1957 13.5032 15.1368L13.3785 14.2554L14.2555 14.1015C14.3141 14.0912 14.3695 14.0677 14.4176 14.0328C14.4657 13.9978 14.5052 13.9524 14.533 13.8998L14.9503 13.1134L15.7501 13.5044C15.8035 13.5305 15.8622 13.544 15.9216 13.544C15.9811 13.544 16.0398 13.5305 16.0932 13.5044L16.893 13.1134L17.3102 13.8998C17.3381 13.9523 17.3776 13.9978 17.4257 14.0328C17.4738 14.0677 17.5292 14.0912 17.5878 14.1015L18.4646 14.2553L18.34 15.1368C18.3316 15.1957 18.3369 15.2556 18.3552 15.3122C18.3736 15.3688 18.4046 15.4204 18.446 15.4631L19.065 16.1029L18.446 16.7427Z" fill="#96A0B5"/>
<path d="M16.7849 15.1412L15.69 16.2361L15.2279 15.774C15.0753 15.6214 14.828 15.6214 14.6755 15.774C14.5229 15.9265 14.5229 16.1738 14.6755 16.3264L15.4138 17.0647C15.4901 17.141 15.59 17.1791 15.69 17.1791C15.7899 17.1791 15.8899 17.141 15.9662 17.0647L17.3373 15.6936C17.4899 15.541 17.4899 15.2937 17.3373 15.1411C17.1849 14.9886 16.9375 14.9886 16.7849 15.1412Z" fill="#96A0B5"/>
<path d="M8.94622 17.8907C9.16195 17.8907 9.33684 17.7158 9.33684 17.5001C9.33684 17.2844 9.16195 17.1095 8.94622 17.1095C8.73048 17.1095 8.55559 17.2844 8.55559 17.5001C8.55559 17.7158 8.73048 17.8907 8.94622 17.8907Z" fill="#96A0B5"/>
</svg>
