<svg width="22" height="20" viewBox="0 0 22 20" fill="none" xmlns="http://www.w3.org/2000/svg">
<path d="M12.4556 15.3838L13.4339 14.4055M12.5754 13.5471L11.5971 14.5253M12.8662 16.9765H17.6336C18.6221 16.9765 19.4235 16.1751 19.4235 15.1866V14.1923M19.4235 7.16898V5.87622C19.4235 4.88773 18.6221 4.08636 17.6336 4.08636H2.78986C1.80137 4.08636 1 4.88773 1 5.87622V15.1866C1 16.1751 1.80137 16.9765 2.78986 16.9765H7.15694M1 7.12105C1 8.91228 2.45207 10.3644 4.24334 10.3644H4.28061M5.95344 10.3644H11.6114M10.5588 15.0818L11.8991 16.4221M19.5473 11.39C19.4165 11.9912 19.1175 12.5631 18.6501 13.0305C17.3524 14.3283 15.2482 14.3283 13.9504 13.0305C12.6526 11.7327 12.6526 9.62858 13.9504 8.33079C15.2482 7.033 17.3524 7.033 18.6501 8.33079C19.1171 8.79771 19.416 9.36898 19.5469 9.96954M5.95344 11.1293H4.28061M13.6628 4.08636V2.73336C13.6628 1.77759 12.8852 1 11.9294 1H8.49405C7.53823 1 6.76065 1.77759 6.76065 2.73336V4.08636M8.00813 4.08636V2.73336C8.00813 2.46543 8.22612 2.24749 8.49405 2.24749H11.9294C12.1973 2.24749 12.4153 2.46543 12.4153 2.73336V4.08636M9.98057 18.3406L12.4418 15.8794C12.4754 15.8458 12.502 15.806 12.5201 15.7622C12.5383 15.7184 12.5476 15.6714 12.5476 15.624C12.5476 15.5766 12.5383 15.5296 12.5201 15.4858C12.502 15.442 12.4754 15.4022 12.4418 15.3686L11.6123 14.5391C11.5787 14.5055 11.5389 14.4789 11.4951 14.4608C11.4513 14.4426 11.4043 14.4333 11.3569 14.4333C11.3095 14.4333 11.2625 14.4426 11.2187 14.4608C11.1749 14.4789 11.1351 14.5055 11.1015 14.5391L8.64029 17.0003C8.27018 17.3704 8.27018 17.9705 8.64029 18.3406C9.01043 18.7107 9.61047 18.7107 9.98057 18.3406ZM19.6235 14.0039C17.7881 15.8392 14.8124 15.8392 12.9771 14.0039C11.1417 12.1685 11.1417 9.1928 12.9771 7.35747C14.8124 5.5221 17.7881 5.5221 19.6235 7.35747C21.4588 9.1928 21.4588 12.1685 19.6235 14.0039ZM5.11702 12.5916C4.65509 12.5916 4.28061 12.2171 4.28061 11.7552V9.81139C4.28061 9.34946 4.65509 8.97497 5.11702 8.97497C5.57896 8.97497 5.95344 9.34946 5.95344 9.81139V11.7552C5.95344 12.2171 5.57896 12.5916 5.11702 12.5916Z" stroke="#96A0B5" stroke-width="0.8" stroke-miterlimit="10" stroke-linecap="round" stroke-linejoin="round"/>
</svg>
