<svg width="20" height="20" viewBox="0 0 20 20" fill="none" xmlns="http://www.w3.org/2000/svg">
<mask id="mask0_26_47" style="mask-type:alpha" maskUnits="userSpaceOnUse" x="0" y="0" width="20" height="20">
<g clip-path="url(#clip0_26_47)">
<path d="M11.6665 17V12.1666C11.6665 11.8905 11.8903 11.6666 12.1665 11.6666H16.9998C17.276 11.6666 17.4998 11.8905 17.4998 12.1666V17C17.4998 17.2761 17.276 17.5 16.9998 17.5H12.1665C11.8903 17.5 11.6665 17.2761 11.6665 17Z" stroke="black" stroke-width="1.25"/>
<path d="M2.5 17V12.1666C2.5 11.8905 2.72386 11.6666 3 11.6666H7.83333C8.10947 11.6666 8.33333 11.8905 8.33333 12.1666V17C8.33333 17.2761 8.10947 17.5 7.83333 17.5H3C2.72386 17.5 2.5 17.2761 2.5 17Z" stroke="black" stroke-width="1.25"/>
<path d="M11.6665 7.83333V3C11.6665 2.72386 11.8903 2.5 12.1665 2.5H16.9998C17.276 2.5 17.4998 2.72386 17.4998 3V7.83333C17.4998 8.10947 17.276 8.33333 16.9998 8.33333H12.1665C11.8903 8.33333 11.6665 8.10947 11.6665 7.83333Z" stroke="black" stroke-width="1.25"/>
<path d="M2.5 7.83333V3C2.5 2.72386 2.72386 2.5 3 2.5H7.83333C8.10947 2.5 8.33333 2.72386 8.33333 3V7.83333C8.33333 8.10947 8.10947 8.33333 7.83333 8.33333H3C2.72386 8.33333 2.5 8.10947 2.5 7.83333Z" stroke="black" stroke-width="1.25"/>
</g>
</mask>
<g mask="url(#mask0_26_47)">
<rect width="20" height="20" fill="#5295CF"/>
</g>
<defs>
<clipPath id="clip0_26_47">
<rect width="20" height="20" fill="white"/>
</clipPath>
</defs>
</svg>
