<svg width="16" height="20" viewBox="0 0 16 20" fill="none" xmlns="http://www.w3.org/2000/svg">
<path d="M3.40584 8.55372L5.23205 6.35669C5.25664 6.3271 5.27517 6.29296 5.28656 6.25621C5.29796 6.21947 5.30201 6.18084 5.29848 6.14252C5.29494 6.10421 5.2839 6.06697 5.26597 6.03293C5.24805 5.99888 5.22359 5.96871 5.194 5.94411C5.13424 5.89446 5.05721 5.87057 4.97984 5.8777C4.90247 5.88484 4.8311 5.92241 4.78143 5.98216L3.21604 7.8654L2.87389 7.30962C2.83316 7.24345 2.76781 7.19617 2.69222 7.17819C2.61663 7.1602 2.53699 7.17297 2.47082 7.2137C2.40465 7.25443 2.35737 7.31978 2.33938 7.39537C2.3214 7.47096 2.33417 7.5506 2.3749 7.61677L2.931 8.52001C3.03615 8.69072 3.27779 8.70779 3.40584 8.55372ZM2.37498 11.484L2.93107 12.3872C3.03615 12.5579 3.27779 12.575 3.40584 12.4209L5.23205 10.2238C5.25664 10.1943 5.27517 10.1601 5.28656 10.1234C5.29796 10.0866 5.30201 10.048 5.29847 10.0097C5.29494 9.97136 5.2839 9.93412 5.26597 9.90008C5.24805 9.86603 5.22359 9.83586 5.194 9.81126C5.16441 9.78667 5.13027 9.76815 5.09353 9.75675C5.05678 9.74535 5.01815 9.74131 4.97984 9.74484C4.94152 9.74837 4.90428 9.75942 4.87024 9.77734C4.8362 9.79527 4.80602 9.81972 4.78143 9.84931L3.21604 11.7326L2.87389 11.1768C2.85372 11.144 2.82729 11.1155 2.79612 11.093C2.76495 11.0705 2.72964 11.0543 2.69222 11.0454C2.65479 11.0365 2.61598 11.035 2.57799 11.0411C2.54001 11.0472 2.5036 11.0607 2.47084 11.0809C2.43808 11.1011 2.40962 11.1275 2.38707 11.1587C2.36452 11.1898 2.34834 11.2252 2.33944 11.2626C2.33054 11.3 2.32909 11.3388 2.33519 11.3768C2.34129 11.4148 2.35481 11.4512 2.37498 11.484ZM2.37498 15.3772L2.93107 16.2804C3.03615 16.4511 3.27779 16.4682 3.40584 16.3141L5.23205 14.1171C5.28172 14.0573 5.30561 13.9803 5.29847 13.9029C5.29134 13.8255 5.25376 13.7542 5.194 13.7045C5.16441 13.6799 5.13027 13.6614 5.09353 13.65C5.05678 13.6386 5.01815 13.6345 4.97984 13.6381C4.90246 13.6452 4.83109 13.6828 4.78143 13.7426L3.21604 15.6258L2.87389 15.07C2.85396 15.0368 2.82763 15.0078 2.79642 14.9848C2.76522 14.9618 2.72975 14.9452 2.69208 14.936C2.65442 14.9268 2.6153 14.9251 2.577 14.9312C2.5387 14.9372 2.50197 14.9508 2.46895 14.9711C2.43594 14.9914 2.40728 15.0181 2.38465 15.0496C2.36203 15.0811 2.34587 15.1167 2.33713 15.1545C2.32839 15.1923 2.32723 15.2314 2.33373 15.2697C2.34023 15.3079 2.35425 15.3444 2.37498 15.3772Z" fill="#96A0B5"/>
<path d="M15.332 16.5393C15.2543 16.5393 15.1798 16.5701 15.1249 16.6251C15.0699 16.68 15.0391 16.7545 15.0391 16.8322V18.9648C15.0391 19.2125 14.8375 19.4141 14.5898 19.4141H1.03516C0.787461 19.4141 0.585938 19.2125 0.585938 18.9648V6.12535C0.585938 5.96352 0.454766 5.83238 0.292969 5.83238C0.131172 5.83238 0 5.96352 0 6.12535V18.9648C0 19.5356 0.464375 20 1.03516 20H14.5898C15.1606 20 15.625 19.5356 15.625 18.9648V16.8322C15.625 16.7545 15.5941 16.68 15.5392 16.6251C15.4843 16.5701 15.4097 16.5393 15.332 16.5393ZM14.5898 2.25746H13.1567V1.04688C13.1567 0.469648 12.6871 0 12.1098 0C11.5326 0 11.063 0.469609 11.063 1.04688V2.25746H8.85938V1.04688C8.85938 0.469609 8.38973 0 7.8125 0C7.23527 0 6.76562 0.469609 6.76562 1.04688V2.25746H4.56199V1.04688C4.56199 0.469648 4.09238 0 3.51512 0C2.93789 0 2.46824 0.469609 2.46824 1.04688V2.25746H1.03516C0.464375 2.25746 0 2.72184 0 3.29262V4.75816C0 4.92 0.131172 5.05113 0.292969 5.05113C0.454766 5.05113 0.585938 4.92 0.585938 4.75816V3.29262C0.585938 3.04492 0.787461 2.8434 1.03516 2.8434H2.46824V3.30859C2.46824 3.88582 2.93785 4.35547 3.51512 4.35547C4.09238 4.35547 4.56199 3.88586 4.56199 3.30859V2.8434H6.76562V3.30859C6.76562 3.88582 7.23523 4.35547 7.8125 4.35547C8.38977 4.35547 8.85938 3.88586 8.85938 3.30859V2.8434H11.063V3.30859C11.063 3.88582 11.5326 4.35547 12.1099 4.35547C12.6871 4.35547 13.1568 3.88586 13.1568 3.30859V2.8434H14.5898C14.8375 2.8434 15.0391 3.04492 15.0391 3.29262V15.465C15.0391 15.6269 15.1702 15.758 15.332 15.758C15.4938 15.758 15.625 15.6269 15.625 15.465V3.29262C15.625 2.72184 15.1606 2.25746 14.5898 2.25746ZM3.97609 3.30859C3.97609 3.56277 3.76934 3.76953 3.51516 3.76953C3.26102 3.76953 3.05422 3.56277 3.05422 3.30859V1.04688C3.05422 0.792695 3.26098 0.585938 3.51516 0.585938C3.76934 0.585938 3.97609 0.792695 3.97609 1.04688V3.30859ZM8.27344 3.30859C8.27344 3.56277 8.06668 3.76953 7.8125 3.76953C7.55832 3.76953 7.35156 3.56277 7.35156 3.30859V1.04688C7.35156 0.792695 7.55832 0.585938 7.8125 0.585938C8.06668 0.585938 8.27344 0.792695 8.27344 1.04688V3.30859ZM12.5708 3.30859C12.5708 3.56277 12.3641 3.76953 12.1099 3.76953C11.8557 3.76953 11.6489 3.56277 11.6489 3.30859V1.04688C11.6489 0.792695 11.8557 0.585938 12.1099 0.585938C12.364 0.585938 12.5708 0.792695 12.5708 1.04688V3.30859Z" fill="#96A0B5"/>
<path d="M6.47412 8.79626H12.646C13.1522 8.79626 13.564 8.38447 13.564 7.8783C13.564 7.37212 13.1522 6.96033 12.646 6.96033H6.47412C5.96795 6.96033 5.55615 7.37212 5.55615 7.8783C5.55615 8.38447 5.96795 8.79626 6.47412 8.79626ZM6.47412 7.54626H12.646C12.8291 7.54626 12.978 7.69521 12.978 7.8783C12.978 8.06138 12.8291 8.21033 12.646 8.21033H6.47412C6.29104 8.21033 6.14209 8.06138 6.14209 7.8783C6.14209 7.69521 6.29104 7.54626 6.47412 7.54626ZM6.47412 12.6718H12.646C13.1522 12.6718 13.564 12.26 13.564 11.7538C13.564 11.2476 13.1522 10.8358 12.646 10.8358H6.47412C5.96795 10.8358 5.55615 11.2476 5.55615 11.7538C5.55615 12.26 5.96795 12.6718 6.47412 12.6718ZM6.47412 11.4218H12.646C12.8291 11.4218 12.978 11.5707 12.978 11.7538C12.978 11.9369 12.8291 12.0858 12.646 12.0858H6.47412C6.29104 12.0858 6.14209 11.9369 6.14209 11.7538C6.14209 11.5707 6.29104 11.4218 6.47412 11.4218ZM6.47412 16.5472H12.646C13.1522 16.5472 13.564 16.1354 13.564 15.6293C13.564 15.1231 13.1522 14.7113 12.646 14.7113H6.47412C5.96795 14.7113 5.55615 15.1231 5.55615 15.6293C5.55615 16.1354 5.96795 16.5472 6.47412 16.5472ZM6.47412 15.2972H12.646C12.8291 15.2972 12.978 15.4462 12.978 15.6293C12.978 15.8124 12.8291 15.9613 12.646 15.9613H6.47412C6.29104 15.9613 6.14209 15.8124 6.14209 15.6293C6.14209 15.4462 6.29104 15.2972 6.47412 15.2972Z" fill="#96A0B5"/>
</svg>
