<svg width="19" height="19" viewBox="0 0 19 19" fill="none" xmlns="http://www.w3.org/2000/svg">
<path d="M5.66667 7.95834H2.33333C1.72575 7.95768 1.14324 7.71602 0.713611 7.28639C0.283983 6.85677 0.0423281 6.27426 0.0416664 5.66667V2.33334C0.0423281 1.72575 0.283983 1.14324 0.713611 0.713616C1.14324 0.283989 1.72575 0.0423335 2.33333 0.0416718H5.66667C6.27425 0.0423335 6.85676 0.283989 7.28639 0.713616C7.71602 1.14324 7.95767 1.72575 7.95833 2.33334V5.66667C7.95767 6.27426 7.71602 6.85677 7.28639 7.28639C6.85676 7.71602 6.27425 7.95768 5.66667 7.95834ZM2.33333 1.29167C2.05713 1.29189 1.79231 1.40171 1.59701 1.59701C1.4017 1.79232 1.29189 2.05714 1.29167 2.33334V5.66667C1.29189 5.94287 1.4017 6.20769 1.59701 6.403C1.79231 6.5983 2.05713 6.70812 2.33333 6.70834H5.66667C5.94287 6.70812 6.20769 6.5983 6.40299 6.403C6.59829 6.20769 6.70811 5.94287 6.70833 5.66667V2.33334C6.70811 2.05714 6.59829 1.79232 6.40299 1.59701C6.20769 1.40171 5.94287 1.29189 5.66667 1.29167H2.33333ZM15.6667 7.95834H12.3333C11.7257 7.95768 11.1432 7.71602 10.7136 7.28639C10.284 6.85677 10.0423 6.27426 10.0417 5.66667V2.33334C10.0423 1.72575 10.284 1.14324 10.7136 0.713616C11.1432 0.283989 11.7257 0.0423335 12.3333 0.0416718H15.6667C16.2743 0.0423335 16.8568 0.283989 17.2864 0.713616C17.716 1.14324 17.9577 1.72575 17.9583 2.33334V5.66667C17.9577 6.27426 17.716 6.85677 17.2864 7.28639C16.8568 7.71602 16.2743 7.95768 15.6667 7.95834ZM12.3333 1.29167C12.0571 1.29189 11.7923 1.40171 11.597 1.59701C11.4017 1.79232 11.2919 2.05714 11.2917 2.33334V5.66667C11.2919 5.94287 11.4017 6.20769 11.597 6.403C11.7923 6.5983 12.0571 6.70812 12.3333 6.70834H15.6667C15.9429 6.70812 16.2077 6.5983 16.403 6.403C16.5983 6.20769 16.7081 5.94287 16.7083 5.66667V2.33334C16.7081 2.05714 16.5983 1.79232 16.403 1.59701C16.2077 1.40171 15.9429 1.29189 15.6667 1.29167H12.3333ZM5.66667 17.9583H2.33333C1.72575 17.9577 1.14324 17.716 0.713611 17.2864C0.283983 16.8568 0.0423281 16.2743 0.0416664 15.6667V12.3333C0.0423281 11.7258 0.283983 11.1432 0.713611 10.7136C1.14324 10.284 1.72575 10.0423 2.33333 10.0417H5.66667C6.27425 10.0423 6.85676 10.284 7.28639 10.7136C7.71602 11.1432 7.95767 11.7258 7.95833 12.3333V15.6667C7.95767 16.2743 7.71602 16.8568 7.28639 17.2864C6.85676 17.716 6.27425 17.9577 5.66667 17.9583ZM2.33333 11.2917C2.05713 11.2919 1.79231 11.4017 1.59701 11.597C1.4017 11.7923 1.29189 12.0571 1.29167 12.3333V15.6667C1.29189 15.9429 1.4017 16.2077 1.59701 16.403C1.79231 16.5983 2.05713 16.7081 2.33333 16.7083H5.66667C5.94287 16.7081 6.20769 16.5983 6.40299 16.403C6.59829 16.2077 6.70811 15.9429 6.70833 15.6667V12.3333C6.70811 12.0571 6.59829 11.7923 6.40299 11.597C6.20769 11.4017 5.94287 11.2919 5.66667 11.2917H2.33333ZM14 18.4458C13.8085 18.4462 13.6189 18.4086 13.442 18.3354C13.2651 18.2622 13.1044 18.1547 12.9692 18.0192L9.98083 15.0308C9.70777 14.7573 9.55441 14.3865 9.55441 14C9.55441 13.6135 9.70777 13.2427 9.98083 12.9692L12.9692 9.98084C13.2427 9.70777 13.6135 9.55441 14 9.55441C14.3865 9.55441 14.7573 9.70777 15.0308 9.98084L18.0192 12.9692C18.2922 13.2427 18.4456 13.6135 18.4456 14C18.4456 14.3865 18.2922 14.7573 18.0192 15.0308L15.0308 18.0192C14.8956 18.1547 14.7349 18.2622 14.558 18.3354C14.3811 18.4086 14.1915 18.4462 14 18.4458ZM14 10.8042C13.9727 10.8039 13.9456 10.8091 13.9202 10.8194C13.8949 10.8297 13.8719 10.8449 13.8525 10.8642L10.8642 13.8525C10.8448 13.8719 10.8294 13.8948 10.8189 13.9202C10.8084 13.9455 10.803 13.9726 10.803 14C10.803 14.0274 10.8084 14.0545 10.8189 14.0799C10.8294 14.1052 10.8448 14.1282 10.8642 14.1475L13.8525 17.1358C13.8719 17.1552 13.8948 17.1706 13.9202 17.1811C13.9455 17.1916 13.9726 17.197 14 17.197C14.0274 17.197 14.0545 17.1916 14.0798 17.1811C14.1052 17.1706 14.1281 17.1552 14.1475 17.1358L17.1358 14.1475C17.1552 14.1282 17.1706 14.1052 17.1811 14.0799C17.1916 14.0545 17.197 14.0274 17.197 14C17.197 13.9726 17.1916 13.9455 17.1811 13.9202C17.1706 13.8948 17.1552 13.8719 17.1358 13.8525L14.1475 10.8642C14.1282 10.8448 14.1052 10.8294 14.0799 10.8189C14.0545 10.8085 14.0274 10.8032 14 10.8033V10.8042Z" fill="#96A0B5"/>
</svg>
