<svg width="13" height="16" viewBox="0 0 13 16" fill="none" xmlns="http://www.w3.org/2000/svg">
<path d="M11.9526 3.6269C10.9097 1.42443 8.76048 0.0325561 6.34124 0.000558898C3.9167 -0.0314383 1.76744 1.31244 0.68752 3.52025C-0.434754 5.80804 -0.170066 8.45848 1.38629 10.4476L5.40425 15.5885C5.50452 15.7168 5.63237 15.8204 5.77816 15.8917C5.92395 15.963 6.0839 16 6.24595 16C6.40801 16 6.56795 15.963 6.71374 15.8917C6.85954 15.8204 6.98738 15.7168 7.08766 15.5885L11.2115 10.309C12.7096 8.38915 12.9902 5.83471 11.9526 3.63224V3.6269ZM10.3857 9.6477L6.24066 14.9272L2.22271 9.78636C0.925739 8.12784 0.703402 5.90404 1.64039 3.99487C2.54033 2.16037 4.2608 1.07246 6.25125 1.07246H6.33065C8.37404 1.10446 10.121 2.22969 10.9997 4.09086C11.8785 5.95203 11.6509 8.02651 10.3857 9.6477Z" fill="#6A7287"/>
<path d="M6.24595 3.2856C4.65254 3.2856 3.35557 4.59215 3.35557 6.19734C3.35557 7.80253 4.65254 9.10909 6.24595 9.10909C7.83937 9.10909 9.13634 7.80253 9.13634 6.19734C9.13634 4.59215 7.83937 3.2856 6.24595 3.2856ZM6.24595 8.03718C5.7678 8.0256 5.31309 7.82611 4.97898 7.48134C4.64486 7.13656 4.45783 6.67384 4.45783 6.19201C4.45783 5.71018 4.64486 5.24746 4.97898 4.90268C5.31309 4.55791 5.7678 4.35842 6.24595 4.34684C6.72411 4.35842 7.17881 4.55791 7.51293 4.90268C7.84704 5.24746 8.03408 5.71018 8.03408 6.19201C8.03408 6.67384 7.84704 7.13656 7.51293 7.48134C7.17881 7.82611 6.72411 8.0256 6.24595 8.03718Z" fill="#6A7287"/>
</svg>
