<svg width="18" height="18" viewBox="0 0 18 18" fill="none" xmlns="http://www.w3.org/2000/svg">
<path d="M15 12.9708L14.2359 12.513C14.0029 12.3737 13.7366 12.3001 13.4651 12.3H12.3152C12.0798 12.2996 11.8454 12.3298 11.6178 12.3899L8.15318 13.32C7.96652 13.3715 7.79498 13.4671 7.65301 13.5988C7.51104 13.7305 7.4028 13.8944 7.3374 14.0766L4.28993 12.4279C4.04277 12.2873 3.75355 12.2395 3.4743 12.2931C3.36895 12.3118 3.2668 12.3453 3.17093 12.3928C2.95428 12.4966 2.77448 12.664 2.6556 12.8728C2.55164 13.0546 2.49696 13.2603 2.49697 13.4697C2.49539 13.6796 2.54942 13.8862 2.65357 14.0685C2.75772 14.2508 2.90827 14.4022 3.08993 14.5074L8.55176 17.7754C8.78897 17.9222 9.06244 18 9.34144 18H13.5684C13.7572 18.0001 13.9443 17.9645 14.1198 17.895L15 17.5474V18H18V12H15V12.9708ZM13.8993 17.337C13.7942 17.3785 13.6823 17.3999 13.5693 17.4H9.34144C9.17239 17.3999 9.00678 17.3523 8.86346 17.2626L3.3942 13.9909C3.30291 13.9381 3.22722 13.8622 3.17484 13.7707C3.12245 13.6792 3.09524 13.5754 3.09596 13.47C3.0964 13.3647 3.1241 13.2614 3.17636 13.17C3.23614 13.0664 3.326 12.9834 3.43403 12.9321C3.48151 12.9089 3.532 12.8926 3.58403 12.8835C3.62195 12.8764 3.66045 12.8728 3.69904 12.8728C3.80216 12.8725 3.90353 12.8994 3.99304 12.9507L7.29754 14.7364C7.30136 14.7547 7.30136 14.7727 7.3062 14.791C7.44833 15.3147 7.92334 15.6784 8.46607 15.679C8.63307 15.6637 8.79846 15.6342 8.96044 15.5908L12.0773 14.7567L11.9226 14.1771L8.81588 15.0075C8.67904 15.039 8.50253 15.075 8.46607 15.0781C8.33429 15.0783 8.20609 15.0352 8.10128 14.9553C7.99646 14.8754 7.92085 14.7633 7.88614 14.6362C7.87646 14.5998 7.87076 14.5626 7.8687 14.5251C7.8687 14.5251 7.86638 14.4524 7.8687 14.427C7.87988 14.3044 7.92809 14.1881 8.00693 14.0936C8.08577 13.9991 8.1915 13.9308 8.31008 13.8979L11.7732 12.9713C11.95 12.924 12.1322 12.9 12.3152 12.9H13.4651C13.628 12.9 13.7879 12.9443 13.9274 13.0279L15 13.6701V16.902L13.8993 17.337ZM15.6 12.6H17.4V17.4H15.6V12.6ZM12.3732 2.40001L10.764 0.790886C10.5139 0.53933 10.2164 0.339896 9.88869 0.204139C9.56098 0.068382 9.20959 -0.00100053 8.85488 1.09008e-05H5.08313C4.85032 0.000393349 4.62076 0.054592 4.41236 0.158373L3.73999 0.494673C3.60526 0.562476 3.4555 0.594893 3.3048 0.588874L3 0.578186V1.09008e-05H0V6.60001H3V5.70001H3.51008L3.69158 5.82001C4.19949 6.15725 4.79073 6.34753 5.4 6.36984V10.2H18V2.40001H12.3732ZM2.4 6.00001H0.6V0.600011H2.4V6.00001ZM4.02364 5.32077L3.68993 5.10001H3V1.17849L3.28286 1.18861C3.53399 1.19755 3.78336 1.14351 4.00826 1.03141L4.68004 0.695073C4.80521 0.632542 4.94321 0.599996 5.08313 0.600011H8.8548C9.13068 0.599214 9.40398 0.653154 9.65887 0.758707C9.91376 0.86426 10.1452 1.01933 10.3397 1.21494L11.5248 2.40001H9.04924L8.32106 1.67199L7.89694 2.09607L10.0162 4.21539C10.2516 4.44976 10.2523 4.83061 10.0179 5.06619C9.78341 5.30157 9.40256 5.30232 9.16714 5.06795L7.39714 3.29795L7.18714 3.47799C6.60716 3.97047 5.75948 3.98307 5.16502 3.50787L4.99118 3.36695L4.6131 3.83307L4.78886 3.97557C4.97271 4.12253 5.17908 4.23883 5.4 4.32001V5.76961C4.90896 5.74782 4.43314 5.59266 4.02364 5.32081V5.32077ZM8.29114 5.03994L8.7438 5.49275C9.21371 5.95561 9.9681 5.95636 10.4388 5.49421C9.99844 6.17607 10.1722 7.08357 10.8333 7.5545C11.4944 8.02546 12.4088 7.89316 12.9094 7.25435C13.4099 6.61539 13.3196 5.69577 12.704 5.16665C12.0886 4.63756 11.1657 4.68605 10.6093 5.27667C10.7103 5.11803 10.7719 4.93755 10.789 4.75026C10.8061 4.56298 10.7782 4.37432 10.7076 4.20001H14.7249C14.8539 4.95485 15.4452 5.54607 16.2 5.67511V6.92491C15.4452 7.05395 14.8539 7.64517 14.7249 8.40001H8.6751C8.54606 7.64517 7.95484 7.05395 7.2 6.92491V5.67511C7.62877 5.60288 8.01662 5.37711 8.29118 5.03994H8.29114ZM10.8 6.30001C10.8 5.80299 11.203 5.40001 11.7 5.40001C12.197 5.40001 12.6 5.80299 12.6 6.30001C12.6 6.79704 12.197 7.20001 11.7 7.20001C11.203 7.20001 10.8 6.79704 10.8 6.30001ZM17.4 9.60001H6V4.44564C6.47561 4.48134 6.94981 4.36018 7.35 4.10071L7.8618 4.61251C7.75079 4.76334 7.60594 4.88602 7.4389 4.97068C7.27185 5.05535 7.08728 5.09965 6.9 5.10001H6.6V7.50001H6.9C7.5627 7.50001 8.1 8.03731 8.1 8.70001V9.00001H15.3V8.70001C15.3 8.03731 15.8373 7.50001 16.5 7.50001H16.8V5.10001H16.5C15.8373 5.10001 15.3 4.56271 15.3 3.90001V3.60001H10.2492L9.6492 3.00001H17.4V9.60001Z" fill="#6A7287"/>
</svg>
