<svg width="15" height="16" viewBox="0 0 15 16" fill="none" xmlns="http://www.w3.org/2000/svg">
<path d="M7.27978 5.99206C7.27978 5.82232 7.21235 5.65953 7.09232 5.5395C6.9723 5.41948 6.80951 5.35205 6.63977 5.35205C6.47003 5.35205 6.30724 5.41948 6.18722 5.5395C6.06719 5.65953 5.99976 5.82232 5.99976 5.99206V8.87209H3.35973C3.18999 8.87209 3.02721 8.93952 2.90718 9.05954C2.78716 9.17957 2.71973 9.34236 2.71973 9.5121C2.71973 9.68184 2.78716 9.84463 2.90718 9.96465C3.02721 10.0847 3.18999 10.1521 3.35973 10.1521H6.31977C6.57438 10.1521 6.81856 10.051 6.9986 9.87092C7.17863 9.69089 7.27978 9.4467 7.27978 9.19209V5.99206ZM12.6123 11.8046C12.6734 11.7456 12.7222 11.6749 12.7557 11.5969C12.7893 11.5188 12.8069 11.4348 12.8077 11.3498C12.8084 11.2648 12.7922 11.1806 12.76 11.1019C12.7279 11.0233 12.6803 10.9518 12.6202 10.8917C12.5602 10.8316 12.4887 10.7841 12.41 10.7519C12.3314 10.7197 12.2471 10.7035 12.1621 10.7043C12.0772 10.705 11.9932 10.7227 11.9151 10.7562C11.837 10.7897 11.7664 10.8385 11.7073 10.8996L10.3998 12.207L10.0523 11.8596C9.99325 11.7985 9.92263 11.7498 9.84454 11.7162C9.76646 11.6827 9.68248 11.665 9.5975 11.6643C9.51252 11.6635 9.42825 11.6797 9.34959 11.7119C9.27094 11.7441 9.19948 11.7916 9.13939 11.8517C9.07929 11.9118 9.03177 11.9833 8.99959 12.0619C8.96741 12.1406 8.95122 12.2248 8.95196 12.3098C8.95269 12.3948 8.97035 12.4788 9.00389 12.5569C9.03743 12.635 9.08619 12.7056 9.14732 12.7646L9.72093 13.3384C9.81007 13.4275 9.91591 13.4983 10.0324 13.5465C10.1489 13.5948 10.2737 13.6196 10.3998 13.6196C10.5259 13.6196 10.6507 13.5948 10.7672 13.5465C10.8837 13.4983 10.9896 13.4275 11.0787 13.3384L12.6123 11.8046Z" fill="#6A7287"/>
<path fill-rule="evenodd" clip-rule="evenodd" d="M8.6401 2.07221C8.64067 2.44087 8.54279 2.803 8.35657 3.12118C8.81307 3.25092 9.25404 3.43011 9.67163 3.65559L10.215 3.11222L10.1076 3.0047C10.0465 2.94566 9.99775 2.87504 9.96421 2.79696C9.93066 2.71887 9.91301 2.63489 9.91227 2.54991C9.91153 2.46493 9.92772 2.38066 9.9599 2.302C9.99208 2.22335 10.0396 2.15189 10.0997 2.0918C10.1598 2.03171 10.2313 1.98418 10.3099 1.952C10.3886 1.91982 10.4728 1.90363 10.5578 1.90437C10.6428 1.90511 10.7268 1.92276 10.8049 1.9563C10.8829 1.98985 10.9536 2.0386 11.0126 2.09973L12.0526 3.13974C12.1726 3.25976 12.24 3.42252 12.24 3.59223C12.24 3.76193 12.1726 3.92469 12.0526 4.04471C11.7846 4.31272 11.3763 4.27352 11.1201 4.01735L10.7516 4.38584C12.0093 5.43145 12.8697 6.93834 13.0736 8.64668C14.1618 9.36173 14.8802 10.5933 14.8802 11.9923C14.8802 14.2015 13.0893 15.9924 10.8801 15.9924C10.2004 15.9924 9.56027 15.8228 8.99978 15.5237C8.22393 15.8343 7.39577 15.9934 6.56007 15.9924C2.93699 15.9924 0 13.0554 0 9.43229C0 7.42347 0.90289 5.62569 2.32483 4.42232L1.92002 4.01735C1.66386 4.27336 1.25553 4.31272 0.987531 4.04471C0.867548 3.92469 0.800146 3.76193 0.800146 3.59223C0.800146 3.42252 0.867548 3.25976 0.987531 3.13974L2.02754 2.09973C2.08658 2.0386 2.1572 1.98985 2.23529 1.9563C2.31337 1.92276 2.39735 1.90511 2.48233 1.90437C2.56731 1.90363 2.65159 1.91982 2.73024 1.952C2.8089 1.98418 2.88035 2.03171 2.94045 2.0918C3.00054 2.15189 3.04806 2.22335 3.08024 2.302C3.11242 2.38066 3.12861 2.46493 3.12788 2.54991C3.12714 2.63489 3.10948 2.71887 3.07594 2.79696C3.0424 2.87504 2.99364 2.94566 2.93251 3.0047L2.82515 3.11222L3.39684 3.68391C3.82961 3.44513 4.28813 3.25634 4.76357 3.12118C4.57736 2.803 4.47948 2.44087 4.48005 2.07221C4.48005 0.923398 5.41126 -0.0078125 6.56007 -0.0078125C7.70889 -0.0078125 8.6401 0.923398 8.6401 2.07221ZM6.56007 4.15223C9.00458 4.15223 11.0612 5.81353 11.6625 8.06876C11.4049 8.01777 11.1428 7.99215 10.8801 7.99228C8.67098 7.99228 6.88008 9.78318 6.88008 11.9923C6.87866 12.9325 7.20975 13.8428 7.81481 14.5624C7.41272 14.6604 6.9924 14.7124 6.56007 14.7124C3.64404 14.7124 1.28001 12.3483 1.28001 9.43229C1.28001 6.51626 3.64404 4.15223 6.56007 4.15223ZM6.56007 2.87222C6.3479 2.87222 6.14441 2.78793 5.99438 2.6379C5.84435 2.48787 5.76006 2.28439 5.76006 2.07221C5.76006 1.86004 5.84435 1.65655 5.99438 1.50652C6.14441 1.35649 6.3479 1.2722 6.56007 1.2722C6.77225 1.2722 6.97573 1.35649 7.12576 1.50652C7.2758 1.65655 7.36008 1.86004 7.36008 2.07221C7.36008 2.28439 7.2758 2.48787 7.12576 2.6379C6.97573 2.78793 6.77225 2.87222 6.56007 2.87222ZM10.8801 14.7124C9.37786 14.7124 8.16009 13.4946 8.16009 11.9923C8.16009 10.4901 9.37786 9.27229 10.8801 9.27229C12.3824 9.27229 13.6002 10.4901 13.6002 11.9923C13.6002 13.4946 12.3824 14.7124 10.8801 14.7124Z" fill="#6A7287"/>
</svg>
